<?xml version="1.0" encoding="UTF-8" standalone="no"?>
<!DOCTYPE svg PUBLIC "-//W3C//DTD SVG 1.1//EN" "http://www.w3.org/Graphics/SVG/1.1/DTD/svg11.dtd">
<svg width="100%" height="100%" viewBox="0 0 74 46" version="1.1" xmlns="http://www.w3.org/2000/svg" xmlns:xlink="http://www.w3.org/1999/xlink" xml:space="preserve" xmlns:serif="http://www.serif.com/" style="fill-rule:evenodd;clip-rule:evenodd;stroke-linejoin:round;stroke-miterlimit:2;">
    <g transform="matrix(1,0,0,1,-33,-52)">
        <g id="VectorWiki-QvbRl__nextjs.svg" transform="matrix(0.0294885,0,0,0.0294885,70.0348,75)">
            <g transform="matrix(1,0,0,1,-1250,-754.5)">
                <path d="M589.893,393.755L1061.42,393.755L1061.42,431.236L633.115,431.236L633.115,713.301L1035.88,713.301L1035.88,750.777L633.115,750.777L633.115,1060.46L1066.33,1060.46L1066.33,1097.93L589.893,1097.93L589.893,393.755ZM1103.66,393.755L1153.76,393.755L1375.77,703.438L1602.69,393.75L1911.33,0.391L1404.25,735.987L1665.56,1097.93L1613.49,1097.93L1375.77,768.531L1137.06,1097.93L1085.98,1097.93L1349.24,735.982L1103.66,393.755ZM1684.22,431.236L1684.22,393.75L2221.56,393.75L2221.56,431.231L1974.01,431.231L1974.01,1097.93L1930.79,1097.93L1930.79,431.236L1684.22,431.236ZM0,393.75L54.028,393.75L799.048,1508.61L491.172,1097.93L45.186,447.012L43.223,1097.94L0,1097.94L0,393.75ZM2217.21,1049.14C2208.37,1049.14 2201.75,1042.31 2201.75,1033.46C2201.75,1024.62 2208.37,1017.77 2217.21,1017.77C2226.14,1017.77 2232.66,1024.62 2232.66,1033.46C2232.66,1042.3 2226.14,1049.14 2217.21,1049.14ZM2259.68,1007.88L2282.81,1007.88C2283.12,1020.41 2292.27,1028.83 2305.72,1028.83C2320.76,1028.83 2329.27,1019.78 2329.27,1002.83L2329.27,895.455L2352.82,895.455L2352.82,1002.93C2352.82,1033.46 2335.16,1051.04 2305.93,1051.04C2278.49,1051.04 2259.68,1033.99 2259.68,1007.88L2259.68,1007.88ZM2383.62,1006.51L2406.96,1006.51C2408.96,1020.93 2423.05,1030.09 2443.34,1030.09C2462.26,1030.09 2476.14,1020.3 2476.14,1006.83C2476.14,995.25 2467.3,988.301 2447.23,983.565L2427.67,978.829C2400.23,972.403 2387.72,959.141 2387.72,936.827C2387.72,909.776 2409.8,891.773 2442.91,891.773C2473.72,891.773 2496.22,909.771 2497.58,935.352L2474.66,935.352C2472.46,921.353 2460.26,912.613 2442.6,912.613C2423.99,912.613 2411.59,921.563 2411.59,935.245C2411.59,946.084 2419.58,952.3 2439.34,956.929L2456.05,961.036C2487.17,968.301 2500,980.933 2500,1003.77C2500,1032.83 2477.51,1051.04 2441.55,1051.04C2407.91,1051.04 2385.3,1033.67 2383.62,1006.51L2383.62,1006.51Z" style="fill-rule:nonzero;"/>
            </g>
        </g>
    </g>
</svg>
