<?xml version="1.0" encoding="UTF-8" standalone="no"?>
<!DOCTYPE svg PUBLIC "-//W3C//DTD SVG 1.1//EN" "http://www.w3.org/Graphics/SVG/1.1/DTD/svg11.dtd">
<svg width="100%" height="100%" viewBox="0 0 38 38" version="1.1" xmlns="http://www.w3.org/2000/svg" xmlns:xlink="http://www.w3.org/1999/xlink" xml:space="preserve" xmlns:serif="http://www.serif.com/" style="fill-rule:evenodd;clip-rule:evenodd;stroke-linejoin:round;stroke-miterlimit:2;">
    <g transform="matrix(1,0,0,1,-1256,-56)">
        <g id="planetscale-seeklogo.com.svg" transform="matrix(0.146763,0,0,0.146763,1275,75)">
            <g transform="matrix(1,0,0,1,-128,-128)">
                <g>
                    <path d="M256,128.044C255.976,198.701 198.701,255.976 128.044,256L256,128.044ZM128,0C179.977,0 224.719,30.981 244.765,75.483L75.483,244.765C68.219,241.493 61.315,237.563 54.847,233.05L159.898,128L128,128L37.49,218.509C14.327,195.346 0,163.346 0,128C0,57.308 57.308,0 128,0Z" style="fill-rule:nonzero;"/>
                </g>
            </g>
        </g>
    </g>
</svg>
