<?xml version="1.0" encoding="UTF-8" standalone="no"?>
<!DOCTYPE svg PUBLIC "-//W3C//DTD SVG 1.1//EN" "http://www.w3.org/Graphics/SVG/1.1/DTD/svg11.dtd">
<svg width="100%" height="100%" viewBox="0 0 38 44" version="1.1" xmlns="http://www.w3.org/2000/svg" xmlns:xlink="http://www.w3.org/1999/xlink" xml:space="preserve" xmlns:serif="http://www.serif.com/" style="fill-rule:evenodd;clip-rule:evenodd;stroke-linejoin:round;stroke-miterlimit:2;">
    <g transform="matrix(1,0,0,1,-456,-53)">
        <g transform="matrix(0.0444106,0,0,0.0444106,457.035,53.1628)">
            <path d="M729.715,779.212L289.381,909.445C275.928,913.428 263.035,901.792 265.862,888.224L423.169,134.864C426.11,120.783 445.584,118.546 451.728,131.593L742.991,750.093C748.483,761.76 742.217,775.519 729.715,779.212ZM805.227,748.492L467.984,32.347L467.984,32.332C459.459,14.39 441.712,2.532 421.874,1.52C401.351,0.325 382.965,10.223 372.592,27.069L6.836,619.477C-4.488,637.714 -4.237,660.959 7.48,678.947L186.267,955.9C196.923,972.432 215.385,982 234.576,982C240.015,982 245.485,981.234 250.862,979.64L769.834,826.149C785.632,821.52 798.667,810.253 805.533,795.292C812.313,780.411 812.201,763.274 805.227,748.484L805.227,748.492Z" style="fill:rgb(12,52,75);"/>
        </g>
    </g>
</svg>
